<svg id="bb681937-831b-4002-8ed7-a535d4fed18d" data-name="Layer 1" xmlns="http://www.w3.org/2000/svg" width="865.76" height="682.89" viewBox="0 0 865.76 682.89"><g id="f51fb89d-01b9-43e4-a352-5eccae741b95" data-name="freepik--background-complete--inject-5"><circle cx="108.59" cy="166.78" r="52.45" fill="#ebebeb"/><path d="M101.78,183.16a8.57,8.57,0,1,1-8.58-8.55h0A8.57,8.57,0,0,1,101.78,183.16Z" fill="#f5f5f5"/><path d="M89.64,158.48a5,5,0,1,1-5-5,5,5,0,0,1,5,5Z" fill="#f5f5f5"/><path d="M57.71,179.54c.23.91-44.9,44.2-33.26,53.45S85,218.54,126.74,184.85s79.82-74.58,69.38-85.44-62.56,21.24-62.56,21.24l6.24,4s31.52-20.22,41.43-12.43S162.78,150.71,122.66,180,43.8,229.81,37.78,221.8,60.15,187,60.15,187Z" fill="#f5f5f5"/><circle cx="804.52" cy="508.86" r="43.27" transform="translate(-124.18 717.92) rotate(-45)" fill="#f5f5f5"/><path d="M810.48,495.53a7.2,7.2,0,1,1,0,.08Z" fill="#ebebeb"/><path d="M820,516.12a4.15,4.15,0,1,1,4.08,4.22H824A4.15,4.15,0,0,1,820,516.12Z" fill="#ebebeb"/><circle cx="446.85" cy="326.49" r="236.47" fill="#f5f5f5"/><path d="M649.25,245.28c-2-2.36-2.21-10.11-6.9-5.67.31-3.9-1.25-13.18,5.67-12.32,7.54,1,4.15,9.13,5.84,13.32,2.06,4.92,8.93,5.32,12.85,8.11,2.65,1.89,4.24,4.7,5.74,6.91a236,236,0,0,0-47.93-85v.57c-5-.35-9.51,6.32-8.58,10.51.15.7,2.18,1.93,2.43,3.45s-1.06,2.17-1.1,3.35c-.11,2.77-.83,5.4,2.91,6.15,2.42-4.61,7.84.86,9,3.92,1.93,5.37-.42,8.08,3.4,12.43,1.47,1.69,5.87,3.76,5,6.73s-3.11,2.4-5.27,1.57c-3.5-1.38-5.38-6.6-9.48-6.75-2.76,6.82-.18,15.66-2.33,22.92-1.2,4-2.68,4.22.81,7.21,1.26,1.08,2.12-.12,3.59,1.62.87,1,.89,3.26.79,4.53,1.93-1.17,3.65-3,6.12-2.76-3.7,3.19-3.12,9.14-5.69,13.2-3.22,5.08-5.9,3.38-10.32,5.41-7.72,3.57-3.73,10.5-4.55,16.25-.47,3.35-3.25,6.18-4.56,9.4a39.16,39.16,0,0,0-3.12,14.23c-.1,5.77,1.75,11,2.86,16.57.88,4.53.89,13.22,5.33,15.84,2.76,1.59,11.28,1.28,14.9,1.82s7.87-1.38,10.92.2,2.6,6.36,6.51,5.26c2.19-.62,3.46-5.77,6.21-6.74,4.41-1.55,7.89,2.48,9.1,5.95,1.55,4.39-.74,4.56-1.93,9.25-.94,3.71,0,7.63,1.19,11.05,2.46,7-.26,3.94-2.76,10.46a19.51,19.51,0,0,0,5.64.63c.14,2.5.68,6.19.1,8.65-1.62,6.9-8.29,10.65-8.62,18.62-.31,7.27,3,16.06,1.65,23.18-1,5.24-6.91,8.64-5.94,14.68,3.3-2.12,5.81-5.52,9.43-7.26a236.46,236.46,0,0,0,17-168.49,32.4,32.4,0,0,1-10.74-7.8C660.18,252.09,653,249.77,649.25,245.28Z" fill="#ebebeb"/><path d="M478.22,96.77c2.9.53,6.17.49,9,1.19,3.24.79,5.52,3,9.08,1.6a9.43,9.43,0,0,0,4-3.39,236.13,236.13,0,0,0-172,25.74c9,.57,7,10.72,14.8,2.36,3.47-3.73,7.32-8.82,11.74-12.08,4.95-3.66,10.61-1.19,16.57-1.38-2,1.38-13.1,9.42-11.87,12,1.7,3.6,7.86-.76,5.44,6.18-2.16,6.19-11,2-16.42,2.39-4.23.33-6.54,3.16-11.05,3.39-4.79.23-9.6-1.12-14.27-1-7.46.22-12.23,4.51-16.78,9.75-2.62,3-5.74,5.3-7.66,9-2.1,4-1.26,9.24-3.22,12.83-1.69,3.09-5.52,3.6-8.29,5.44a57.17,57.17,0,0,0-9.94,9.09c-4.43,5.15-6.42,15-14,16.82-1.08,8,11.05-3.14,14.58-1.55,1.84-2.43,2.56-5.65,5.28-7.47s6.56-1.5,9.67-3.49c5.92-3.79,4-12.09,11.4-13.5,6-1.13,12.65-2.29,14.12,4.27.73,3.26-.54,3-.64,6.11-.13,4.14-.47,1.63,2.68,4.14,4.75,3.91,5.53,8.62,1.81,14.13-1.78,2.61-2.76,2.25-3.85,5.63s-.71,7-.58,10.57c.12,4-.26,7.81-.39,11.78-.21,6.6,1.38,9.06,6.6,13.21,4,3.17,8.19,5.53,10.24,10.43,1.76,4.28,1.38,9.41,2.61,13.81,1.21,4.6,12.66,14.21,11.41,6-.65-4.22-5.46-5.17-5.43-10.33,0-2.08.85-5.15,1.07-7.34,6.56-1.8,4.84,9.39,6.59,12.73,2.5,4.74,9,7.79,12.43,11.55-3.16,1.47-8.49,4.57-6.74,8.95,2.24,5.52,9.3,1.67,13.19,1.76,8.51.2,17,5.89,23.89,10.43,6.61,4.32,9.27,6.91,17.59,6.28a26.2,26.2,0,0,1,15,3,16,16,0,0,1,7.86,7.72c2.64,5,3.83,6.79,8.29,10.21,2.9,2.22,4.42,4.64,7.63,4.47,2.21-.1,3.82-3.33,7.19-2.28,6.4,2,4.54,10.14,2.44,13.81-1.77,3.15-3.43,7.21-5.39,10.33-2.51,4-9.08,5.46-9.84,10.71-.72,5,4.83,10.69,6.06,15.4,1.12,4.26,1,9,1,13.34-2.76,4,14,18.28,17.17,21,4.59,4,11.27,9.29,13.05,15.38.73,2.5.31,6.42.55,9.06a117.54,117.54,0,0,1,.4,16.78c-.37,8.16-6.24,13.15-7.62,20.88-1.12,6.2,1.09,12.72.15,18.86-.43,2.76-1,6.68-1.65,9.39s-2,2.68-3.11,4.6c-2,3.42-1,6.8.69,10.51,5.19-3.75,9.5,3.32,11.95,6.9,3.05,4.48,6.69,6.26,13,5.53-2.49-2-6.67-8.73-5.82-12.43,1.26-5.4,9.05-9.77,11.67-14.28,2.84-4.88,2-9.44,7.89-11.61,1.64-.6,3.58-.3,5.22-1,2-.84,3.14-2.76,5.12-3.71,5.45-2.58,6.69-1.89,8.95-8,2.77-7.33,5.11-16.57,12.09-21.27,2.76-1.83,5.76-1.71,8.74-3,3.27-1.38,4.3-3.65,6.91-5.53a53.67,53.67,0,0,0,10.56-9.46,78.42,78.42,0,0,0,9.45-14.08c1.75-3.17,2.51-6.11,5.16-8.65,1.12-1.08,2.83-1.5,4.15-2.76,4.79-4.78,6.58-12.43,10.74-17.67,2.34-2.95,4.64-4.62,5.93-8a16.1,16.1,0,0,0-1.88-3.24c-1-1.83-3.48-3.53-4.71-5.42-.43-.67-.58-2.76-1-3.17-3.44-3.67-11.77-5.6-16.41-5.8-6.34-.24-15.84-1.23-20-6.9-3.08-4.27,2.19-10.33.16-14.88-2.51-5.67-15.71-8.41-20.78-11.49-3.49-2.12-5.86-5.35-9.32-7.52-5.07-3.17-8.11-4.48-10.26-10.06-1.3-3.34.69-3.91-3.36-5.18-3.77-1.17-9.67,2.12-13.89,2.45-3.14.25-6.67.9-9.67,0-3.73-1.12-6.48-5.35-10.36-6.06-3.49-.67-10.39,1-13.59,3.09-2.76,1.77-4.14,5-7.13,6.34-4.3,2-4-.62-8.17-1s-6.33,1.92-9.52-2.76c-4.32-6.41-2.57-19.51-12.74-20.17-3-.19-8.86,2.35-10.72-1.53-2.76-5.72,7.12-13.3,5.7-19.49-1.49-6.43-13.51,2-16.21,5.53-1.73,2.27-3.1,7.84-6.73,8.28-2.76.29-8.35-3.31-10-5.31-2.89-3.5-3.07-10.28-3.48-14.69-.79-8.28,1.12-10.86,6.9-17.05,5.11-5.53,6.16-5.94,12.71-7.09,4-.7,4-2.12,7.39-.34,1.63.85,2.64,3.4,4.63,4.21,2.76-2.76,4.65-3.56,8.38-2.83,2.68.54,8.29,3.65,9.76,6.16.9,1.53,2.31,15.3,7.27,6.9-2.89-2.37-2.12-5.17-3.29-7.81s-3.85-4.56-4.35-7.86c-.59-3.84,2.76-11.84,7.14-12.68l-.47-4.31c4.85-.68,10.61-12.43,9.67-18.21-.5-2.89-3.63-2.67-2-6.83,2-4.86,5.34-2.32,9.46-3.22s3.52-3.6,6.46-5.78c3.21-2.4,4.71-.57,7.43-.44,5.11.22,11.81,1.38,12.18-5.72,3.12-.43,5.84-1.38,9-.08.41-5.53-.82-9.56-5.53-12.75-4.14-2.76-9.67-3.65-14-6.4-2.77-1.76-4.77-4.33-7.41-6.21-4.25-3-7.18-6.4-11-9.82-4.91-4.36-9.67,1.15-16.12.25-8.61-1.22-8.05-7.69-13.37-11.53-.61-.45-2.36.15-3.15-.24a22.65,22.65,0,0,1-3.81-3.58,20,20,0,0,1-5.52-11.53c9.48-5.52,11.89,7.54,15.85,12.27,1.8,2.14,8.85,3.48,3.33,6.9,3.82.26,7.22-.3,10.8.55,1.68.39,3.12,1.39,5,1.39.37-3-.68-5.83-1.26-8.66-.28-1.3.1-2.64-.44-3.9-.79-1.84-2.76-2.76-3.47-4.27-2.1-4.37.53-4.37-4.25-7-3.29-1.81-7.25-3.11-10.65-4.64a21.49,21.49,0,0,1-6.64-3.75c-.85-.84-6.19-6.46-6.59-7.48-3.79-9.38,10.94-.86,14.31,0A137.5,137.5,0,0,1,449,112.08c4.34,1.65,4.41,2.62,6.08,6.9,3,7.85,7.23,4.15,12,9.35,2.88,3.15,5.13,8.84,7.62,12.57,3.13,4.72,15.45,19.47,22.33,12.43,3.69-3.8-3.44-10.44-3.58-14.14-.15-3.94,2.52-6.37,5.24-8.51,4.57-3.6,5.63-5.1.22-9.46-6.64-5.37-13.95-6.24-21.88-8.76-8.6-2.76-10.89-7.7-15.26-14.68,2.87-.52,5.9-.76,8.84-1A29.07,29.07,0,0,1,478.22,96.77ZM390.55,157.4c-1.12,2.95-3.18,2-5.1,3.54-2.95,2.31,2.27,6.41.15,7.91-.74.54-4.82.32-5.74,0-2.36-.78-3.09-2.46-5.86-2.43-3.63,0-7.28-.67-6.47-5.25.37-2.14,2.54-4.26,1.51-6.61a13.68,13.68,0,0,0-3.74-3.65c-.95-.66-2.14-.56-3-1.09-1.89-1.17-1.17-5.81.91-6.63.07,6.41,9.58.62,11.55,3.57s-2,4.14.53,6c1.45,1.14,5.26,1.14,6.71.71,2.23-.65,6-4,8.17-1.58.86,1.07.8,4.33.35,5.51ZM421,146.13c2.36.68,1.95,1.81,3.18,3.68,1.38,2.11,3.74,1.92,5.41,3.45,3.16,2.91-1.84,6.75,0,10.36,1.62,3.13,19.68,7.83,7.89,11.67-3.46,1.12-5.53-1.15-8.63-2a16.58,16.58,0,0,0-10.09,1.1c-5.76,3.35,7.14,9.55-.81,11.95-1.62.5-6.91.18-7.4-1.82-.5-1.77,2-1.74,2.5-3.44,2-6.69-6.18-2.56-8.47-3.14-3.23-.83-2.22-6.63.35-7.94,1.38-.7,4.9-.33,6.44-.36,2.53,0,5.06.35,7.59.13,1.17-4.86-6.12-7.32-9.95-7.85-3-.4-3.41-1-5.89-2.76-3-2.18-4.31-1.57-2.21-5.52,1.83-3.48,4.83-5.33,7.81-7.68,1.38-.69,2.5.76,3.87.91C415.39,147.06,418.24,145.39,421,146.13Z" fill="#ebebeb"/><path d="M441.8,269.46c-2.69-.93-12.29,2.53-8.36,5.36,2.67,1.94,9-.55,12.25.21s7.31-.46,10.5.84c2.36,1,3.65,3.15,6.27,3.8,3.19.8,4.88-.5,1.91-3-2.09-1.74-5-2.21-7.42-3.34-1.84-.84-3.49-2.5-5.33-3C449.18,269.69,443.72,271.92,441.8,269.46Z" fill="#ebebeb"/><path d="M475.33,283.84c-2.36,1.49-4.61,2.24-5.4,5.28-.92,3.56.56,2.9,3,1.52,1.52-.89,3.62-2.38,5.52-2.28s3.39,1.46,5.18,1.78a10.86,10.86,0,0,0,9.13-2.09c2-1.72,2.13-4-1-4.46-2.34-.37-6.08.78-8.51,1S476.64,285,475.33,283.84Z" fill="#ebebeb"/><path d="M587.13,510.89c-5.41,3.72-8.7,8.8-15.09,11.44-6.91,2.84-13.46,6.78-20.58,9.66s-14.9,7.35-22.29,9.15c-6.18,1.5-13.12-1.39-19.34-1.26A83.94,83.94,0,0,0,490.75,543c-4.3,1.11-4.15.32-7.5-1a13.24,13.24,0,0,0-5.16-1.3,58.22,58.22,0,0,1-6.32-.47c-.11,3,6.45,9,8.93,10.88-19.33,1.67-39.91-.77-59.12-2.76-5.66-.58-9,1.88-14.42,2.57-5,.65-9.21-2-14.24-2.09-6.05,0-8.7,1.21-11.28,5a236.31,236.31,0,0,0,216.68-45.79,17.06,17.06,0,0,0-.18-2.25C595,507,590,508.93,587.13,510.89Z" fill="#ebebeb"/><path d="M217.69,328.85a14.39,14.39,0,0,0,1.07-7.64c-.64-2.68-1.9-2.44-3.12-4.58-3.42-5.9,1.67-6.6,1.65-11.56,0-2.9-6-9.81-2-12.76,1.8-1.38,8.29,1.9,11.59.54-.58-4.77-5.26-3.32-7.17-6.55-2.84-4.85,1.88-5.86,3.34-8,4.75-6.91-2-10.51-3.68-16.23a235.92,235.92,0,0,0-9,64.43c0,.84,0,1.68.07,2.54C212.17,327.51,214.42,327.08,217.69,328.85Z" fill="#ebebeb"/><path d="M225.48,261.73c2.38-.75,1.45-6.55,1.89-8.12a55.47,55.47,0,0,1,6.91-13.81c3.91-5.83,2.17-8,1.3-15.11-.15-1.2-.24-2.51-.33-3.8a233,233,0,0,0-14.5,36.05C222.11,258.91,223.84,262.26,225.48,261.73Z" fill="#ebebeb"/><path d="M220.19,300.61c-3.67,10.83,7.92,12.43,8.15,21.32.08,3.3-1.61,14.67,5.29,13.81,2.76-6.3-1.68-7.17-.88-13,.54-4,3.38-5.08-1-8.28-1.21-.92-3.38-.94-4.36-1.9-1.38-1.31-1.11-3.1-1.94-4.42C223.94,305.75,221.67,304.21,220.19,300.61Z" fill="#ebebeb"/><path d="M220.19,338c-2.93,6.45-8.28,29.68,2.13,30.11,1.16,0,3.29-2.07,4.47-1.29.94.62.13,3,.56,3.29,2.69,1.52,3.38,1.89,4.46-2.76.85-3.69-1-3.84-1.56-6.36a23.08,23.08,0,0,1-.07-6.64c-6.76-1.66,6.9-3.09,6.35-5.81-.4-2.07-10.5-1.48-11.95-1a17.33,17.33,0,0,1,.31-5.61C222.64,340.88,222,338.5,220.19,338Z" fill="#ebebeb"/><path d="M254.21,359.07c-5.88.34-9-5-15.87-2.92,0,1.39-.37,3-.37,4.3,1.56-.47,8.79-2.17,7.63,2-1,3.48-7.26-.92-6.17,4.21,1.8-.2,4.63-1.54,6.4-1.38,2.56.34,3.57,1.72,6,2.25,3.2.7,2.76-.89,6.19,1.52,2.65,1.88,5.4,4.77,6.27,7.68,1.86,6.19-.9,8.63,7,9.6,4.14.51,12.91,5,12.65-1.78,3.95,1.38,10,13.09,15.29,11.9,6.63-1.47-6.2-11.79-6.16-12.94,2.61-.23,8.41-2.76,10.41-3.92s4.15-1,3.35-5.18c-3.14-.37-4.52,1.15-6.91,1.77a27.78,27.78,0,0,1-8.77.46,34.14,34.14,0,0,1-19.6-8.07c-3.16-2.6-5.87-4.75-9.17-7.19-2.15-1.59-2.08-2.6-4.56-3.32A3.83,3.83,0,0,0,254.21,359.07Z" fill="#ebebeb"/><path d="M221.15,374.4c4.22,0,8.74.51,12.94,0,1.38-.18,3.1-2.5,4.72-.87.58.59.12,4.32-.4,4.9-2.56,2.85-16.64,1.93-15.83-3.56" fill="#ebebeb"/><path d="M285.82,407.52c-.4-7.45-3.27-6.43-6.71-11.19-1.19,3.08-2.51,9.25-6.67,9.67-6.15.66-7.13-8.52-10.8-11.05-5.26-3.59-17.22-.1-18.45,4.79C238.3,401.66,238,404,236,408a67.05,67.05,0,0,1-4.92,8.44,26.26,26.26,0,0,1-1.92,2.43,236.23,236.23,0,0,0,15.88,30.78,6.7,6.7,0,0,0,1.71.32c5.21.41,8-5.33,12.14-4.79,3,.38,5.24,5.52,7.72,7.54,6.91,5.69,18.46,9.91,21.13,18.32,1.63,5.1,3.65,7.31,6.84,11.69,2.24,3.05,1.78,8.46,5.07,10.33a65.72,65.72,0,0,1,1.86-14.25c1.62-5.85-.09-10.68,2.61-15.87s7-9.48,6.55-16c-.33-4.41-3.6-10-6.74-13.14C295,424.93,286.58,421.6,285.82,407.52Z" fill="#ebebeb"/><path d="M345.73,457.77c-3.84.74-2.51,8.21-3.6,11.26-1.54,4.3-3.07,3.85-7.57,5a55.53,55.53,0,0,0-8.47,2.39c-4.14,1.93-4.5,5.38-5.71,9.53,5.16.42,8.13-5.61,12.77-6.58,4-.81,7.27,1,11.41-.83,10.4-4.53,7.82-14.77,9.24-23.12C350.72,454.9,348.61,456.75,345.73,457.77Z" fill="#ebebeb"/><path d="M350.11,414.17c-1.38,3.08,0,10.44,4.54,6,2.1-2.07,1.94-7.15-2.07-6.9,0,.63-.3.81-.55,1.38" fill="#ebebeb"/><path d="M384.06,421.84c-3.75,2.94,4.32,7.93,5.65,3.24,1-3.38-4.42-4.5-5.65-3.24" fill="#ebebeb"/><path d="M323.69,340.38c1.09,2.77,8.16,5,9.47,9.56,1.21,4.23,0,7.91,6.27,8.09-.15-3,1.51-7,.1-9.66-.63-1.21-2.76-1.39-3.52-2.77s-.21-3-.83-4.32C333.86,338.57,322.25,332.19,323.69,340.38Z" fill="#ebebeb"/><path d="M503.13,552C369.18,552,260.59,443.4,260.59,309.45A242.57,242.57,0,0,1,382.77,98.87C257.3,135.11,185,266.2,221.2,391.67S388.52,589.48,514,553.24c2-.58,4-1.18,6-1.81C514.46,551.74,508.82,552,503.13,552Z" fill="#fafafa"/><path d="M488.22,611.87l.77,1.39a9.44,9.44,0,0,0,3.74,3.7l1.39.76-1.39.77a9.19,9.19,0,0,0-3.74,3.7l-.77,1.38-.78-1.38a9.14,9.14,0,0,0-3.72-3.7l-1.39-.77,1.39-.76a9.33,9.33,0,0,0,3.72-3.7Z" fill="#ebebeb"/><path d="M210.37,557.09l.78,1.38a9.25,9.25,0,0,0,3.74,3.7l1.38.77-1.38.76a9.25,9.25,0,0,0-3.74,3.7l-.78,1.39-.76-1.39a9.51,9.51,0,0,0-3.74-3.7l-1.38-.76,1.38-.77a9.44,9.44,0,0,0,3.74-3.7Z" fill="#ebebeb"/><path d="M252.05,128.61l.76,1.38a9.34,9.34,0,0,0,3.75,3.7l1.38.77-1.38.76a9.49,9.49,0,0,0-3.75,3.71l-.76,1.38-.77-1.38a9.28,9.28,0,0,0-3.74-3.71l-1.38-.76,1.38-.77a9.19,9.19,0,0,0,3.74-3.7Z" fill="#ebebeb"/><path d="M837.63,362.85l1.38,2.41a15.94,15.94,0,0,0,6.4,6.39l2.4,1.31-2.4,1.38a16,16,0,0,0-6.4,6.38l-1.38,2.42-1.31-2.42a16.1,16.1,0,0,0-6.4-6.38l-2.4-1.38,2.4-1.31a16.19,16.19,0,0,0,6.4-6.39Z" fill="#ebebeb"/><path d="M693.24,122.75l.76,1.38a9.46,9.46,0,0,0,3.74,3.71l1.38.75-1.38.78a9.44,9.44,0,0,0-3.74,3.7l-.76,1.38-.77-1.38a9.47,9.47,0,0,0-3.75-3.7l-1.38-.78,1.38-.75a9.49,9.49,0,0,0,3.75-3.71Z" fill="#ebebeb"/><path d="M546.64,59.32l.76,1.38a9.44,9.44,0,0,0,3.74,3.7l1.38.76-1.38.78a9.38,9.38,0,0,0-3.74,3.7L546.64,71l-.78-1.38A9.33,9.33,0,0,0,542.08,66l-1.38-.77,1.38-.76a9.34,9.34,0,0,0,3.74-3.71Z" fill="#ebebeb"/><path d="M74.56,439.25l1.38,2.41a16,16,0,0,0,6.39,6.39l2.41,1.38-2.41,1.31a16.13,16.13,0,0,0-6.39,6.4l-1.38,2.4-1.38-2.4a16.15,16.15,0,0,0-6.4-6.4l-2.4-1.31,2.4-1.38a16.06,16.06,0,0,0,6.4-6.39Z" fill="#ebebeb"/></g><circle cx="752.47" cy="174.6" r="34.84" transform="translate(-3.88 17.64) rotate(-1.34)" fill="#d1d3d4"/><path d="M763.83,161.27a5.69,5.69,0,1,1,5.56,5.82h0A5.7,5.7,0,0,1,763.83,161.27Z" opacity="0.2"/><path d="M775.19,174.53a3.32,3.32,0,1,1,3.25,3.38h0a3.28,3.28,0,0,1-3.23-3.34Z" opacity="0.2"/><path d="M770.76,184.68a1.23,1.23,0,0,1,0,2.46,1.24,1.24,0,0,1-1.22-1.25v0a1.22,1.22,0,0,1,1.24-1.19Z" opacity="0.2"/><path d="M89.64,266.92l.77,1.38a9.37,9.37,0,0,0,3.7,3.71l1.39.76-1.39.77a9.23,9.23,0,0,0-3.64,3.74l-.78,1.38-.75-1.38a9.43,9.43,0,0,0-3.71-3.7l-1.38-.77,1.38-.76a9.43,9.43,0,0,0,3.71-3.7Z" fill="#d1d3d4"/><path d="M364.79,186.9l.76,1.38a9.37,9.37,0,0,0,3.7,3.71l1.38.76-1.38.76a9.24,9.24,0,0,0-3.7,3.71l-.76,1.38-.76-1.38a9.24,9.24,0,0,0-3.7-3.71l-1.38-.76,1.38-.76a9.3,9.3,0,0,0,3.7-3.71Z" fill="#d1d3d4"/><path d="M268.2,152.79l.37.69a4.7,4.7,0,0,0,1.85,1.85l.71.39-.71.39a4.56,4.56,0,0,0-1.79,1.85l-.38.69-.38-.69a4.58,4.58,0,0,0-1.85-1.85l-.69-.39.69-.39a4.58,4.58,0,0,0,1.85-1.85Z" fill="#d1d3d4"/><path d="M666.75,175l.39.7a4.64,4.64,0,0,0,1.85,1.85l.69.37-.69.39a4.52,4.52,0,0,0-1.85,1.85l-.39.69-.37-.69a4.7,4.7,0,0,0-1.85-1.85l-.71-.39.71-.37a4.84,4.84,0,0,0,1.85-1.85Z" fill="#d1d3d4"/><path d="M758.4,292l.38.69a4.73,4.73,0,0,0,1.86,1.85l.7.39-.7.38a4.69,4.69,0,0,0-1.86,1.86l-.38.69-.38-.69a4.6,4.6,0,0,0-1.85-1.86l-.7-.38.68-.38a4.64,4.64,0,0,0,1.85-1.85Z" fill="#d1d3d4"/><path d="M637.47,577l.39.71a4.7,4.7,0,0,0,1.85,1.85l.69.37-.69.39a4.64,4.64,0,0,0-1.85,1.85l-.39.7-.37-.7a4.77,4.77,0,0,0-1.85-1.85l-.71-.39.71-.37a4.9,4.9,0,0,0,1.85-1.85Z" fill="#d1d3d4"/><path d="M765.08,461.39l.38.71a4.77,4.77,0,0,0,1.85,1.85l.7.37-.7.39a4.64,4.64,0,0,0-1.85,1.85l-.38.69-.38-.69a4.54,4.54,0,0,0-1.86-1.85l-.69-.39.69-.37a4.66,4.66,0,0,0,1.86-1.85Z" fill="#d1d3d4"/><path d="M468.33,494.22l.39.71a4.7,4.7,0,0,0,1.85,1.85l.69.37-.69.39a4.46,4.46,0,0,0-1.85,1.85l-.39.7-.37-.7a4.76,4.76,0,0,0-1.84-1.83l-.7-.38.7-.38A4.7,4.7,0,0,0,468,495Z" fill="#d1d3d4"/><path d="M283,461.39l.37.71A4.77,4.77,0,0,0,285.2,464l.7.37-.7.39a4.7,4.7,0,0,0-1.85,1.85l-.37.69-.39-.69a4.7,4.7,0,0,0-1.85-1.85l-.71-.39.71-.37a4.77,4.77,0,0,0,1.85-1.85Z" fill="#d1d3d4"/><path d="M25.17,288.92l.39.69a4.73,4.73,0,0,0,1.85,1.86l.7.38-.7.37a4.75,4.75,0,0,0-1.85,1.87l-.39.69-.37-.69A4.75,4.75,0,0,0,23,292.22l-.71-.37.71-.38a4.73,4.73,0,0,0,1.85-1.86Z" fill="#d1d3d4"/><path d="M351.27,505l1.38,2.4a16.15,16.15,0,0,0,6.4,6.4l2.4,1.38-2.4,1.31a16.15,16.15,0,0,0-6.4,6.4l-1.38,2.4-1.31-2.4a16.15,16.15,0,0,0-6.4-6.4l-2.4-1.31,2.4-1.38a16.15,16.15,0,0,0,6.4-6.4Z" fill="#d1d3d4"/><path d="M605.24,246.61l1.38,2.4a16.06,16.06,0,0,0,6.39,6.4l2.41,1.38L613,258.17a16,16,0,0,0-6.39,6.39l-1.38,2.4-1.38-2.4a16.06,16.06,0,0,0-6.4-6.39l-2.4-1.38,2.4-1.38a16.15,16.15,0,0,0,6.4-6.4Z" fill="#d1d3d4"/><path d="M742.6,525.5c0,.2-34-4.28-75.82-10S591,505,591.07,504.76s34,4.28,75.82,10S742.63,525.31,742.6,525.5Z" fill="#333333"/><path d="M255.19,226.06c0,.19-27.06-4.39-60.33-10.25s-60.2-10.76-60.2-11,27,4.4,60.34,10.25S255.22,225.85,255.19,226.06Z" fill="#333333"/><path d="M179.91,198.82c0,.2-16.85-2.84-37.54-6.79s-37.46-7.31-37.41-7.5,16.83,2.84,37.53,6.79S180,198.63,179.91,198.82Z" fill="#333333"/><path d="M774.34,541.76c0,.19-16.9-2.12-37.65-5.17s-37.57-5.67-37.54-5.87,17,2.09,37.66,5.14S774.36,541.54,774.34,541.76Z" fill="#333333"/><path d="M478.84,302c-1.2,1.06-37.11,5.33-37.11,5.33l-24.6-11.26-8.64,9.78s29,16.14,32.08,16.57,25.32-2.14,25.32-2.14Z" fill="#000000"/><path d="M406.06,303.83h0a86.38,86.38,0,0,1-8.85-3.33c-3.93-1.94-3.76-2.28-3.46-2.7.82-1.13,7,3.13,6.23,1.39s-8.2-4.33-7.32-5.53c1.18-1.49,7.61,3.08,8.18,3.43s1.09-.47.56-.76c-.77-.4-8.72-4.92-7.59-6.38.63-.82,2,.44,2,.44s7.14,4.76,7.65,4.06-3.58-3.66-5-4.56-1.6-1.92-.68-2.24c.63-.2,5.13,2.43,6.55,3.35s5.25,3.49,4.39.69-.45-5.29.13-5.89a.91.91,0,0,1,1.49.89,11.25,11.25,0,0,0,.3,2.95,7.28,7.28,0,0,0,.87,2.21c.49.79.91,1.38,1.31,2a4.11,4.11,0,0,1,.76,3c-.34,1.58-5.42,7.45-5.42,7.45Z" fill="#f9b499"/><path d="M416.76,296.67l-7.39,9.25a1.55,1.55,0,0,1-2,.39h0a1.55,1.55,0,0,1-.61-2.12,1.14,1.14,0,0,1,.15-.23l7.45-9.22a1.54,1.54,0,0,1,1.86-.43h0a1.54,1.54,0,0,1,.7,2.07A1.45,1.45,0,0,1,416.76,296.67Z" fill="#333333"/><path d="M440.49,322.39c-.08-.09.59-.71,1.38-1.91a11.07,11.07,0,0,0,1-10.61c-.55-1.38-1.09-2.05-1-2.12a4.7,4.7,0,0,1,1.46,1.9,10.39,10.39,0,0,1-1.08,11.14A4.92,4.92,0,0,1,440.49,322.39Z" fill="#263238"/><path d="M411.33,302.93a5.39,5.39,0,0,1,1.29.59l3.37,1.84,11.12,6.05,11.2,5.9,3.39,1.79a5.5,5.5,0,0,1,1.2.75,5.7,5.7,0,0,1-1.38-.5c-.84-.35-2-.9-3.5-1.59-2.93-1.38-6.91-3.37-11.32-5.72s-8.28-4.57-11-6.24c-1.38-.84-2.5-1.55-3.26-2A5.78,5.78,0,0,1,411.33,302.93Z" fill="#263238"/><path d="M442.86,319.4a76.41,76.41,0,0,1,10.53-1.67,80.29,80.29,0,0,1,10.62-1,76.41,76.41,0,0,1-10.53,1.67A78.64,78.64,0,0,1,442.86,319.4Z" fill="#263238"/><rect x="394.23" y="285.04" width="6.48" height="20.37" rx="2.71" transform="translate(-70.89 134.65) rotate(-17.68)" fill="#333333"/><path d="M501.17,325.55l9.84,1.64a8.94,8.94,0,0,0,9.84-5.62l9.81-25.26a9,9,0,0,0-5.14-11.63,8.9,8.9,0,0,0-1.77-.48l-1.27-.22a19.69,19.69,0,0,0-21.56,12.29l-6.65,17.17a9,9,0,0,0,5.11,11.62A9.31,9.31,0,0,0,501.17,325.55Z" fill="#333333"/><path d="M496.08,257.13a5.39,5.39,0,0,0-7.49,1.32,5.46,5.46,0,0,0-1,3.2c0,1.21.28,1.71-.31,2-.39.21-1.38.28-1.77.57a3.61,3.61,0,0,0-1.38,2.48c0,2.39,1.89,3.94,3.16,6" fill="#333333"/><path d="M500.85,257.37a5.76,5.76,0,0,0-6,1.61,3.12,3.12,0,0,0-.87,2.18,2.79,2.79,0,0,0,1.73,2.15,7.05,7.05,0,0,0,2.84.41,5,5,0,0,0,3.8-1.17,3.22,3.22,0,0,0,.24-3.73,4.76,4.76,0,0,0-3.28-2.1" fill="#263238"/><path d="M496.27,304.42h0a8,8,0,0,1-6.91-9,8.28,8.28,0,0,1,.16-.84c.59-2.51,1.09-4.56,1.09-4.56s-6.15-1.81-5.4-8.09c.41-3.55,1.54-9.28,2.47-13.63a10.75,10.75,0,0,1,6.9-7.94h0c7.68-2.18,10.25,1,15.89,6.63l.84.84-6.19,30.23A8,8,0,0,1,496.27,304.42Z" fill="#f9b499"/><path d="M509.75,274.4c.14,0,5.19.42,3.45,5.05-1.5,4.05-5.65,1.85-5.65,1.71S509.75,274.4,509.75,274.4Z" fill="#f9b499"/><path d="M505.23,274.06a1.53,1.53,0,0,0,.44,1.27c.31.35.7.61,1,1a3.24,3.24,0,0,1,.87,2,4.31,4.31,0,0,0,.09.95.8.8,0,0,0,.68.6c.5,0,.72-.63.8-1.12.35-2.09.68-4.15,1-6.26l-5-2.2.29,3.53" fill="#333333"/><path d="M494.76,258.64c.94-.25,2.05-.2,2.27.76a4.8,4.8,0,0,1-.48,2.76,7.91,7.91,0,0,0-.85,2.76,3.48,3.48,0,0,0,1.72,3,3.44,3.44,0,0,0,3.49-.08,11.54,11.54,0,0,0,.29,3.93,4,4,0,0,0,2.6,2.76,2.42,2.42,0,0,0,3-1.71.24.24,0,0,0,0-.08,4.14,4.14,0,0,0,1.38,2.18,2.28,2.28,0,0,0,2.5.19,1.59,1.59,0,0,0,.51-2.2l-.06-.1a3,3,0,0,0,2.76,1.89,2.49,2.49,0,0,0,2.37-2.2,2.18,2.18,0,0,0-2.06-2.31h-.05a4.33,4.33,0,0,0,2.28-.23,1.47,1.47,0,0,0,.8-1.92c-.46-.82-1.64-.7-2.49-1.11-1.38-.66-1.58-2.47-2-3.92a9.81,9.81,0,0,0-5.42-5.78,15.86,15.86,0,0,0-8.08-1.12c-1.8.16-3.87.8-4.44,2.51" fill="#333333"/><path d="M515.92,315.9c-4.14,14.86-11.16,39.15-13.81,44.43l-47.45-12.1,10.08-31.12a29.87,29.87,0,0,1,19.91-19.53l.31-.08c6.27-1.77,14.31-.86,21.7,1.38A13.81,13.81,0,0,1,515.92,315.9Z" fill="#000000"/><g opacity="0.7"><path d="M485.14,319.29a2.07,2.07,0,0,0,2.47,1.58h0a2.07,2.07,0,1,0-2.47-1.58Z" fill="#fff"/></g><g opacity="0.7"><path d="M483,328.86a2.07,2.07,0,1,0,1.59-2.45h0A2.08,2.08,0,0,0,483,328.86Z" fill="#fff"/></g><g opacity="0.7"><path d="M479.93,338.39a2.07,2.07,0,1,0,1.59-2.47A2.07,2.07,0,0,0,479.93,338.39Z" fill="#fff"/></g><path d="M470.71,315.26a48.9,48.9,0,0,1,11.47,2.46,23.81,23.81,0,0,1-5.81-.87A24.06,24.06,0,0,1,470.71,315.26Z" fill="#263238"/><path d="M467.28,324.93a39.73,39.73,0,0,1,12.62,2.46A100.45,100.45,0,0,1,467.28,324.93Z" fill="#263238"/><path d="M466.12,335.13a20.48,20.48,0,0,1,5.28.71,19.88,19.88,0,0,1,5.13,1.38,20.6,20.6,0,0,1-5.29-.7A19.83,19.83,0,0,1,466.12,335.13Z" fill="#263238"/><path d="M508,299.36a3,3,0,0,0-1.87-2.94c-2.1-1.09-16.94-1.53-16.94-1.53s-4,.28-4.51,2.69Z" fill="#3f3d56"/><path d="M472.46,272.1a1.55,1.55,0,0,1,0-.43c0-.32-.1-.73-.15-1.25a10.86,10.86,0,0,1-.13-2.05,18.9,18.9,0,0,1,.13-2.82,24.51,24.51,0,0,1,1.89-7.47,27.43,27.43,0,0,1,30.89-16,25.37,25.37,0,0,1,7.43,2.7A30.71,30.71,0,0,1,516,247a29.76,29.76,0,0,1,3.12,2.7,26.67,26.67,0,0,1,7.6,15,28.51,28.51,0,0,1-.19,8.6,25.55,25.55,0,0,1-2.85,7.87,28.94,28.94,0,0,1-2.22,3.45,30.2,30.2,0,0,1-2.77,3,25.67,25.67,0,0,1-6.36,4.56,28.15,28.15,0,0,1-14.14,3.09,27.73,27.73,0,0,1-20.09-10,25.37,25.37,0,0,1-3.95-6.66,21.42,21.42,0,0,1-.91-2.7,14,14,0,0,1-.47-2l-.2-1.26a1,1,0,0,1,0-.41,1.48,1.48,0,0,1,.12.41c.07.31.17.72.28,1.23a13.35,13.35,0,0,0,.54,2,18.79,18.79,0,0,0,1,2.63,24.69,24.69,0,0,0,4,6.51,27.25,27.25,0,0,0,19.69,9.78A27.53,27.53,0,0,0,512,291.58a25.79,25.79,0,0,0,6.22-4.48,23.8,23.8,0,0,0,4.8-6.28,25.62,25.62,0,0,0-4.39-30.68,26.82,26.82,0,0,0-3-2.69,28.16,28.16,0,0,0-10.6-4.71,27.66,27.66,0,0,0-14.13.78,26.77,26.77,0,0,0-10.51,6.4,26.43,26.43,0,0,0-5.75,8.3,25.44,25.44,0,0,0-2,7.35,21.82,21.82,0,0,0-.18,2.8,13.76,13.76,0,0,0,0,2,5.11,5.11,0,0,0,.09,1.27A1.53,1.53,0,0,1,472.46,272.1Z" fill="#333333"/><path d="M480.66,258.43a11.14,11.14,0,0,1,1.9-3.08,25,25,0,0,1,14.59-9,10.35,10.35,0,0,1,3.59-.3c0,.11-1.38.24-3.46.8a29,29,0,0,0-7.85,3.31,29.59,29.59,0,0,0-6.49,5.53C481.51,257.34,480.77,258.49,480.66,258.43Z" fill="#333333"/><path d="M479.37,263c-.2,0-.39-.72-.13-1.57s.84-1.39,1-1.23,0,.71-.29,1.38S479.57,263,479.37,263Z" fill="#333333"/><path d="M594,349.69l9.84,1.64a9,9,0,0,0,9.84-5.62l9.81-25.26a9,9,0,0,0-5.11-11.62,9.21,9.21,0,0,0-1.8-.49l-1.27-.22a19.69,19.69,0,0,0-21.56,12.29l-6.65,17.17a9,9,0,0,0,6.9,12.11Z" fill="#455a64"/><path d="M772.32,390.43l10.07,15.13h0a46.76,46.76,0,0,1-33.52,37.35l-58.42,16.33-39.51.12L146,379.47,115.3,368.42a32.53,32.53,0,0,1-21.12-35.91l3.65-22a7.86,7.86,0,0,1,6.61-6.49l2.35-.36s5.15-21.28,18.91-24.19c50.53-13.24,124.64-8.83,204.55-.1l53.12-16.49A283.2,283.2,0,0,1,460,250.35c2,2.56,4.06,5,5.63,7.29l.62,1a248.35,248.35,0,0,0-78.79,11.75l-53.36,20.38,269.31,35.48h0a11.41,11.41,0,0,1,10.39-12.34,11,11,0,0,1,2.81.11l63.12,10.51,9,8.89,69,14.94c6.11,1.26,20.25,10.71,14.58,42.13" fill="#333333"/><path d="M387.48,270.33a248,248,0,0,1,70.35-11.62c-3.2,4.33,3.35,8.63,3.46,9.36l-2.77,2.76a195.88,195.88,0,0,0-58.39,9.28l-37.29,14.26-28.72-3.62Z" fill="#333333"/><path d="M387.48,270.33a248,248,0,0,1,70.35-11.62c-3.2,4.33,3.35,8.63,3.46,9.36l-2.77,2.76a195.88,195.88,0,0,0-58.39,9.28l-37.29,14.26-28.72-3.62Z" opacity="0.2"/><path d="M122.65,304.61l-15.39-2.55c1.23-4.08,5.07-14.81,12.6-20l20.24,3.37a4.87,4.87,0,0,1,4,5.6,5,5,0,0,1-1.08,2.33l-4.64,5.52A17,17,0,0,1,122.65,304.61Z" fill="#ebebeb"/><path d="M124.65,304c2.64-6.56,6-15.19,12.43-19.05l3,.5a4.87,4.87,0,0,1,4,5.6,5,5,0,0,1-1.08,2.33l-4.64,5.52a16.92,16.92,0,0,1-14.06,5.94Z" fill="#e0e0e0"/><g opacity="0.7"><path d="M263.43,398.13a76.75,76.75,0,0,0,4.71-24c1.21-34.83-17.47-62.88-51.26-68.5-29.41-4.89-56.54,9.82-66.68,43.18a88.29,88.29,0,0,0-3.62,30.74Z"/></g><g opacity="0.7"><path d="M690.42,459.24c.15-1.26.24-2.57.43-3.91C696.8,412.05,672.36,377.71,638,372a57.85,57.85,0,0,0-66.49,47.49c-1.59,9.59-3.42,18.56-3.49,26.71l82.86,13.16Z"/></g><circle cx="628.48" cy="428.97" r="50.34" fill="#d1d3d4"/><path d="M578.86,420.58v.13a50.34,50.34,0,0,0,99.31,16.57.33.33,0,0,0,0-.14Z" fill="#bcbec0"/><path d="M593.62,423.18a35.34,35.34,0,1,0,40.71-29h-.05A35.33,35.33,0,0,0,593.62,423.18Z" fill="#fff" opacity="0.6" style="isolation:isolate"/><path d="M634.28,394.12a35.35,35.35,0,0,0-40.66,29l69.72,11.6A35.34,35.34,0,0,0,634.28,394.12Z" fill="#fff" opacity="0.6" style="isolation:isolate"/><path d="M607.24,425.44a21.53,21.53,0,1,0,24.82-17.64h0A21.55,21.55,0,0,0,607.24,425.44Z" fill="#d1d3d4"/><circle cx="208.67" cy="366.61" r="50.34" transform="translate(-184.73 518.87) rotate(-81.51)" fill="#d1d3d4"/><path d="M159,358.2a.24.24,0,0,1,0,.12,50.35,50.35,0,1,0,99.32,16.58h0v-.13Z" fill="#bcbec0"/><path d="M173.8,360.84a35.34,35.34,0,1,0,40.71-29h0A35.33,35.33,0,0,0,173.8,360.84Z" fill="#fff" opacity="0.6" style="isolation:isolate"/><path d="M214.46,331.72a35.35,35.35,0,0,0-40.66,29l69.72,11.61A35.36,35.36,0,0,0,214.46,331.72Z" fill="#e0e0e0"/><path d="M187.42,363.05a21.53,21.53,0,1,0,24.78-17.69h0A21.54,21.54,0,0,0,187.42,363.05Z" fill="#d1d3d4"/><polygon points="368.42 295.24 334.12 290.72 365.56 278.7 368.42 295.24" fill="#333333"/><g opacity="0.3"><polygon points="368.42 295.24 334.12 290.72 365.56 278.7 368.42 295.24"/></g><path d="M381.59,302.1l-14.19-2.36c-2.06-.33-3.12-4.24-2.37-8.73h0c.67-4,2.58-7.2,4.5-7.5l15.56-2.46Z" fill="#333333"/><g opacity="0.4"><path d="M114.11,340.58c-.92,5.52-4.42,9.66-7.81,9s-5.39-5.52-4.47-11.05,4.42-9.66,7.82-9.06S115,335,114.11,340.58Z"/></g><path d="M772.32,390.43a4.53,4.53,0,0,1-1-.07l-2.76-.31c-2.4-.31-5.87-.75-10.16-1.23s-9.42-1-15.11-1.38a128.91,128.91,0,0,0-18.54-.09,47.31,47.31,0,0,0-9.37,1.73,38.63,38.63,0,0,0-8.08,3.71,117.44,117.44,0,0,0-12.43,8.66,45.57,45.57,0,0,1-8.8,5.31,21.62,21.62,0,0,1-2.63.94,4.25,4.25,0,0,1-1,.23c0-.08,1.29-.41,3.47-1.38a49.73,49.73,0,0,0,8.6-5.52A110.13,110.13,0,0,1,707,392.2a38.09,38.09,0,0,1,8.19-3.8,45.47,45.47,0,0,1,9.53-1.76,123.53,123.53,0,0,1,18.65.12c5.71.44,10.84,1,15.12,1.57s7.76,1.07,10.15,1.45l2.76.46A4.5,4.5,0,0,1,772.32,390.43Z" fill="#333333"/><g opacity="0.2"><path d="M688.69,459.89l.67-.31a15,15,0,0,0,1.86-1,17.37,17.37,0,0,0,5.53-5.78,26.71,26.71,0,0,0,3.49-12.23,88.79,88.79,0,0,0-.79-17,87.36,87.36,0,0,0-5.09-19.93,72.55,72.55,0,0,0-12.07-20.27,62,62,0,0,0-20.47-16,70.29,70.29,0,0,0-27.14-6.57,94.17,94.17,0,0,0-27.87,2.91A58.67,58.67,0,0,0,568.32,393,99.55,99.55,0,0,0,560,411.94c-.95,3-1.76,5.92-2.44,8.68a55.8,55.8,0,0,0-1.53,7.89c-.6,5,.38,9.43,2.54,12.24a11.33,11.33,0,0,0,6.49,4.53,12.16,12.16,0,0,0,2.76.16l-.72.1a8.86,8.86,0,0,1-2.12-.13,11.23,11.23,0,0,1-6.69-4.5c-2.25-2.84-3.29-7.42-2.76-12.43a55.11,55.11,0,0,1,1.49-8c.66-2.77,1.46-5.67,2.4-8.73a98.9,98.9,0,0,1,8.15-19.09,74.36,74.36,0,0,1,6.52-9.6,58,58,0,0,1,8.74-8.64,62.83,62.83,0,0,1,23.65-11.41,94.62,94.62,0,0,1,28.09-2.94,71,71,0,0,1,27.4,6.6,62.25,62.25,0,0,1,20.71,16.17,73.2,73.2,0,0,1,12.12,20.5,87.07,87.07,0,0,1,5.11,20.11,88.94,88.94,0,0,1,.69,17.11A26.84,26.84,0,0,1,697,453a17.12,17.12,0,0,1-5.75,5.76A10.8,10.8,0,0,1,688.69,459.89Z"/></g><path d="M305.78,391.22a7.1,7.1,0,0,1,0-1.13c.07-.82.18-1.88.3-3.23.29-2.88.72-6.91,1.23-11.87,1.12-10.07,2.65-23.86,4.35-39.11.93-7.6,1.38-15,3.51-21.41a33.44,33.44,0,0,1,4.14-8.52,53.55,53.55,0,0,1,5.06-6.54,44.3,44.3,0,0,1,9.07-7.77c1.17-.77,2.14-1.31,2.76-1.65a6,6,0,0,1,1-.49,7.09,7.09,0,0,1-.93.61c-.64.39-1.58,1-2.77,1.77a46.59,46.59,0,0,0-8.85,7.86,55.89,55.89,0,0,0-4.92,6.54,32.15,32.15,0,0,0-4.07,8.4c-2,6.31-2.5,13.67-3.44,21.28-1.77,15.2-3.37,29-4.54,39.09-.62,4.94-1.12,9-1.47,11.83-.18,1.38-.33,2.42-.44,3.22A6,6,0,0,1,305.78,391.22Z" opacity="0.2"/><path d="M283,387.42a5.56,5.56,0,0,1,.81.09l2.39.31,9.21,1.31,33.82,4.92,111.57,16.51L490.39,418l-.32.14a311.15,311.15,0,0,0,22.19-37.81,158.86,158.86,0,0,0,7.21-17.14,156.64,156.64,0,0,0,4.41-15.32,149.06,149.06,0,0,0,3.67-22.32c.22-2.62.29-4.65.32-6v-2.08a4.51,4.51,0,0,1,0,.52v1.56c0,1.38,0,3.41-.21,6a143.93,143.93,0,0,1-3.49,22.4A154.62,154.62,0,0,1,520,363.32a157,157,0,0,1-7.17,17.22,307.54,307.54,0,0,1-22.16,38l-.11.17h-.22L440.7,411.3,329.17,394.59l-33.79-5.15-9.19-1.38-2.39-.4Z" fill="#333333"/><g opacity="0.3"><path d="M381.59,302.1l-14.19-2.36c-2.06-.33-3.12-4.24-2.37-8.73h0c.67-4,2.58-7.2,4.5-7.5l15.56-2.46Z" fill="#fff"/></g><path d="M151.24,349a21.29,21.29,0,0,1-1.39-2.15,35.65,35.65,0,0,0-4.14-5.42,48,48,0,0,0-18.66-12.21,94.08,94.08,0,0,0-22-4.79c-2.87-.32-5.2-.54-6.82-.69a19,19,0,0,1-2.5-.32,2.36,2.36,0,0,1,.65,0l1.88.07c1.61,0,4,.2,6.9.47a86.48,86.48,0,0,1,22.2,4.62,46.44,46.44,0,0,1,18.78,12.53,33.1,33.1,0,0,1,4,5.63c.41.71.65,1.29.84,1.68S151.24,348.93,151.24,349Z" fill="#333333"/><path d="M156.55,311.86c0,.2-11.9-1.63-26.53-4.06s-26.45-4.57-26.4-4.76,11.9,1.63,26.53,4.06S156.59,311.67,156.55,311.86Z" fill="#333333"/><g opacity="0.2"><path d="M281.61,395.6v-.69c0-.46.15-1.15.26-2s.25-2,.36-3.26.26-2.77.35-4.48a115,115,0,0,0-1.88-28.39,119.56,119.56,0,0,0-5.17-19,95.72,95.72,0,0,0-9.82-20.26,55.42,55.42,0,0,0-17.8-17.11,71.46,71.46,0,0,0-24.86-9.2,83.83,83.83,0,0,0-13.52-1.06,87.47,87.47,0,0,0-13.11,1.24,78.79,78.79,0,0,0-12.27,3.3l-1.47.52-1.38.59L178.47,297l-2.76,1.38-1.38.66-1.3.75a70.75,70.75,0,0,0-17.68,13.81,77.14,77.14,0,0,0-11.42,15.94,80.14,80.14,0,0,0-6.23,14.95c-.61,2.31-1.23,4.45-1.59,6.48s-.69,3.85-.92,5.52-.29,3.17-.43,4.45a31.89,31.89,0,0,0-.15,3.27c0,.89,0,1.54,0,2v.69c0-.22,0-.45,0-.68v-2c0-.87,0-2,.08-3.28s.11-2.77.37-4.48.43-3.55.87-5.52.94-4.15,1.54-6.52a80.85,80.85,0,0,1,6.16-15.1,77.73,77.73,0,0,1,11.43-16.1,71.56,71.56,0,0,1,17.8-14l1.3-.74,1.38-.68,2.76-1.38c1-.4,1.91-.79,2.86-1.2l1.38-.6,1.5-.52a77.29,77.29,0,0,1,12.43-3.34,86.27,86.27,0,0,1,13.23-1.27,83.07,83.07,0,0,1,13.64,1.07,71.93,71.93,0,0,1,25.18,9.31,56,56,0,0,1,18,17.33,95.9,95.9,0,0,1,9.84,20.43,119.55,119.55,0,0,1,4.95,19.07,113.09,113.09,0,0,1,1.66,28.51A84.69,84.69,0,0,1,281.61,395.6Z"/></g><path d="M325.5,298.44H325l-1.53-.25-5.91-1c-5.14-.83-12.57-2.09-21.8-3.33s-20.23-2.6-32.48-3.72-25.76-2-40-2.41-27.72-.35-40.06-.2-23.47,0-32.71-.69a162.17,162.17,0,0,1-21.85-3c-2.56-.53-4.52-1-5.83-1.38l-1.5-.42a3.13,3.13,0,0,1-.52-.16l.53.09,1.52.35c1.38.33,3.3.79,5.85,1.27a170.87,170.87,0,0,0,21.84,2.76c9.28.64,20.36.73,32.67.54s25.86-.32,40.06.12,27.71,1.39,40,2.5,23.27,2.53,32.5,3.86,16.64,2.65,21.76,3.56l5.9,1.13,1.52.32Z" opacity="0.2"/><path d="M556.53,428.63c0,.2-15-2.14-33.41-5.2s-33.33-5.71-33.29-5.91,15,2.14,33.41,5.2S556.55,428.43,556.53,428.63Z" fill="#333333"/><path d="M689.08,333.78a2.88,2.88,0,0,1-.15.72c-.15.54-.36,1.2-.59,2-.52,1.76-1.27,4.29-2,7.48a43.08,43.08,0,0,0-1.18,11.31,24.16,24.16,0,0,0,4.44,13,34,34,0,0,0,10.29,9.24,60,60,0,0,0,10.39,4.79c3.06,1.12,5.59,1.89,7.33,2.46l2,.66a2.33,2.33,0,0,1,.69.28,3.14,3.14,0,0,1-.73-.14l-2-.53c-1.76-.48-4.32-1.18-7.43-2.25a58.09,58.09,0,0,1-10.54-4.69A34.09,34.09,0,0,1,689,368.68a24.36,24.36,0,0,1-4.52-13.34,41.74,41.74,0,0,1,1.38-11.46c.79-3.19,1.63-5.71,2.23-7.45.3-.87.54-1.53.72-2A2.7,2.7,0,0,1,689.08,333.78Z" fill="#333333"/><path d="M773.37,384c-.8,3.55-4.78,2.54-9.16.52a13.6,13.6,0,0,1-6.8-18l.21-.44v-.13A12.75,12.75,0,0,1,769,359l1,.11S775.83,373.1,773.37,384Z" fill="#e0e0e0"/><path d="M497.64,328.05a1.67,1.67,0,0,1,.63,0,8.73,8.73,0,0,1,1.76.36,3.47,3.47,0,0,1,2.19,1.84A3.76,3.76,0,0,1,502,334a5.54,5.54,0,0,1-4,2.25,15.85,15.85,0,0,1-5.22-.54l-11.6-2.43a9.91,9.91,0,0,1-3-1.06,4,4,0,0,1-1.92-2.6,3.47,3.47,0,0,1,1.05-2.95,4.82,4.82,0,0,1,2.61-1.38,16.9,16.9,0,0,1,5.26.26c1.6.25,3.09.52,4.45.79l6.39,1.25a18.86,18.86,0,0,1,2.35.49,1.62,1.62,0,0,1-.62,0c-.4,0-1-.1-1.77-.2-1.53-.19-3.73-.56-6.45-1-1.38-.22-2.85-.47-4.45-.69a16,16,0,0,0-5-.2,4.18,4.18,0,0,0-2.27,1.19,2.76,2.76,0,0,0-.84,2.35,3.24,3.24,0,0,0,1.6,2.1,8.75,8.75,0,0,0,2.76,1l11.59,2.49a16,16,0,0,0,5,.59,5.13,5.13,0,0,0,3.68-2,3.29,3.29,0,0,0,.31-3.3,3.15,3.15,0,0,0-1.92-1.74C498.49,328.22,497.62,328.13,497.64,328.05Z" fill="#333333"/><path d="M535.17,323.12l-25.55-8.87c-5.41-1.67-7.67-1.88-8.2-6,.76-6.54,3.51-9.43,8.29-8.48-.2-1.14,27.32,8,38.89,11.88a11.23,11.23,0,0,1,6.9,6.67h0" fill="#000000"/><path d="M520.51,342.59h0a86.94,86.94,0,0,1-8,5.18c-3.91,2-4.14,1.69-4.25,1.19-.43-1.38,6.72-3.83,4.87-4.14s-8.38,4.14-8.78,2.66c-.5-1.84,7-4.31,7.66-4.57s.26-1.16-.27-.9c-.81.38-9.19,4.15-9.67,2.34-.28-1,1.56-1.38,1.56-1.38s8.11-3,7.83-3.77-5.1.7-6.69,1.38-2.49.15-2.2-.79c.2-.62,5-2.76,6.61-3.3s5.95-2.16,3.18-3.15-4.56-2.76-4.7-3.61a.93.93,0,0,1,1.62-.67,10.49,10.49,0,0,0,2.57,1.5,6.77,6.77,0,0,0,2.3.62c.93.09,1.73.13,2.39.13a4.13,4.13,0,0,1,2.9,1.19c1.07,1.21,2.76,8.84,2.76,8.84Z" fill="#f9b499"/><path d="M519.75,329.07l4.14,11.71,27.42-10.33a8.28,8.28,0,0,0,4.92-10.63c-.07-.19-.14-.38-.23-.57l-2-3.75Z" fill="#000000"/><path d="M483.37,301a1.12,1.12,0,1,0,.28-.11" fill="#ebebeb"/><path d="M481.52,303.49a1.12,1.12,0,0,0-.42,1.53,1.12,1.12,0,1,0,.7-1.64" fill="#ebebeb"/><path d="M491.08,306.31a.33.33,0,0,1,0,.44.37.37,0,0,1-.45-.09c-.12-.15-.15-.35,0-.44a.31.31,0,0,1,.43.06Z" fill="#263238"/><g opacity="0.2"><path d="M407.26,300.4s-44.64,46.78-44.65,72.69c0,0,13.08-9.81,19.86-10.18,0,0-16,13.46-17.11,45.78,0,0,29.76-53.58,64.67-68,0,0-25.91,6.47-32.2,10.19,0,0,34.41-35.05,56.1-44.2Z"/></g><path d="M520.31,329l4.4,11.05a1.59,1.59,0,0,1-.58,1.92h0a1.59,1.59,0,0,1-2.18-.56,2,2,0,0,1-.1-.21l-4.33-11.12a1.57,1.57,0,0,1,.56-1.85h0a1.56,1.56,0,0,1,2.13.56A1,1,0,0,1,520.31,329Z" fill="#000000"/><path d="M520.31,329l4.4,11.05a1.59,1.59,0,0,1-.58,1.92h0a1.59,1.59,0,0,1-2.18-.56,2,2,0,0,1-.1-.21l-4.33-11.12a1.57,1.57,0,0,1,.56-1.85h0a1.56,1.56,0,0,1,2.13.56A1,1,0,0,1,520.31,329Z" opacity="0.2"/></svg>